<svg xmlns="http://www.w3.org/2000/svg" xmlns:xlink="http://www.w3.org/1999/xlink" width="500" zoomAndPan="magnify" viewBox="0 0 375 374.999991" height="500" preserveAspectRatio="xMidYMid meet" version="1.0"><defs><g/></defs><rect x="-37.5" width="450" fill="#ffffff" y="-37.499999" height="449.999989" fill-opacity="1"/><rect x="-37.5" width="450" fill="#ffffff" y="-37.499999" height="449.999989" fill-opacity="1"/><rect x="-37.5" width="450" fill="#f1f1f1" y="-37.499999" height="449.999989" fill-opacity="1"/><g fill="#bda0ae" fill-opacity="1"><g transform="translate(79.826, 231.831225)"><g><path d="M 43.847656 -50.15625 C 54.210938 -52.859375 65.921875 -59.164062 65.921875 -74.03125 C 65.921875 -93.101562 42.496094 -94.152344 35.738281 -94.152344 L 7.207031 -94.152344 L 7.207031 0.148438 L 33.035156 0.148438 C 37.089844 0.148438 69.226562 -0.449219 69.226562 -25.980469 C 69.226562 -42.347656 56.761719 -48.503906 43.847656 -50.15625 Z M 30.03125 -91.75 C 44.449219 -91.75 54.511719 -87.09375 54.511719 -72.378906 C 54.511719 -57.664062 43.699219 -50.605469 26.128906 -50.605469 L 17.871094 -50.605469 L 17.871094 -91.75 Z M 26.128906 -2.253906 L 17.871094 -2.253906 L 17.871094 -48.203125 L 30.03125 -48.203125 C 52.859375 -48.203125 57.8125 -36.339844 57.8125 -24.328125 C 57.8125 -6.605469 43.398438 -2.253906 26.128906 -2.253906 Z M 26.128906 -2.253906 "/></g></g></g><g fill="#bda0ae" fill-opacity="1"><g transform="translate(155.058162, 231.831225)"><g><path d="M 73.730469 -94.152344 L 4.957031 -94.152344 L 4.957031 -91.75 L 33.9375 -91.75 L 33.9375 0.148438 L 44.75 0.148438 L 44.75 -91.75 L 73.730469 -91.75 Z M 73.730469 -94.152344 "/></g></g></g><g fill="#bda0ae" fill-opacity="1"><g transform="translate(233.894262, 231.831225)"><g><path d="M 17.871094 -2.253906 L 17.871094 -94.152344 L 7.207031 -94.152344 L 7.207031 0.148438 L 55.410156 0.148438 L 55.410156 -2.253906 Z M 17.871094 -2.253906 "/></g></g></g><g fill="#000000" fill-opacity="1"><g transform="translate(50.761379, 195.46726)"><g><path d="M -1.09375 5.46875 C -0.957031 5.46875 -0.820312 5.398438 -0.75 5.261719 C -0.339844 4.511719 0.0664062 3.757812 0.613281 3.007812 C 1.570312 3.417969 3.007812 3.621094 4.714844 3.621094 C 11.757812 3.621094 20.574219 0.546875 23.308594 -4.441406 C 23.375 -4.511719 23.445312 -4.511719 23.511719 -4.511719 C 24.402344 -4.304688 25.289062 -4.101562 26.109375 -3.757812 L 26.246094 -3.757812 C 26.453125 -3.757812 26.65625 -3.964844 26.65625 -4.167969 C 26.65625 -4.304688 26.519531 -4.441406 26.382812 -4.511719 C 25.5625 -4.785156 24.742188 -5.058594 23.855469 -5.261719 C 23.785156 -5.261719 23.71875 -5.332031 23.785156 -5.46875 C 24.058594 -6.152344 24.195312 -6.902344 24.195312 -7.65625 C 24.195312 -9.160156 23.582031 -10.253906 22.28125 -10.9375 C 22.214844 -11.003906 22.214844 -11.074219 22.351562 -11.140625 C 26.863281 -13.191406 31.097656 -16.335938 31.097656 -19.683594 C 31.097656 -21.941406 28.773438 -23.035156 24.128906 -23.035156 C 14.625 -23.035156 4.03125 -16.609375 0.410156 -12.234375 C 0.339844 -12.167969 0.273438 -12.03125 0.273438 -11.960938 C 0.273438 -11.757812 0.476562 -11.550781 0.683594 -11.550781 C 0.820312 -11.550781 0.957031 -11.621094 1.023438 -11.6875 C 4.511719 -15.992188 14.832031 -22.28125 24.128906 -22.28125 C 28.296875 -22.28125 30.277344 -21.394531 30.277344 -19.683594 C 30.277344 -16.472656 25.835938 -13.328125 21.257812 -11.484375 C 21.1875 -11.414062 21.121094 -11.414062 21.050781 -11.484375 C 20.164062 -11.6875 19.070312 -11.824219 17.90625 -11.824219 C 14.761719 -11.824219 12.304688 -11.003906 12.234375 -9.84375 C 12.167969 -9.226562 12.851562 -8.816406 13.601562 -8.816406 C 15.515625 -8.816406 18.25 -9.5 20.984375 -10.59375 L 21.1875 -10.59375 C 22.691406 -10.046875 23.375 -9.089844 23.375 -7.65625 C 23.375 -6.902344 23.238281 -6.21875 23.035156 -5.605469 C 22.964844 -5.46875 22.898438 -5.46875 22.828125 -5.46875 C 20.914062 -5.808594 18.863281 -6.015625 16.746094 -6.015625 C 13.054688 -6.015625 9.226562 -5.398438 6.082031 -4.511719 C 11.6875 -11.277344 18.316406 -17.839844 21.394531 -19.683594 C 21.53125 -19.753906 21.597656 -19.890625 21.597656 -20.027344 C 21.597656 -20.230469 21.460938 -20.367188 21.1875 -20.367188 L 20.984375 -20.367188 C 17.769531 -18.386719 10.527344 -11.277344 4.714844 -4.03125 C 1.160156 -2.800781 -1.230469 -1.09375 -1.230469 0.613281 C -1.230469 1.433594 -0.820312 2.117188 -0.0664062 2.597656 C -0.613281 3.417969 -1.023438 4.167969 -1.433594 4.851562 C -1.503906 4.921875 -1.503906 4.988281 -1.503906 5.058594 C -1.503906 5.261719 -1.367188 5.46875 -1.09375 5.46875 Z M 13.601562 -9.5 C 13.261719 -9.5 12.988281 -9.570312 12.988281 -9.773438 C 13.054688 -10.320312 15.378906 -11.074219 17.90625 -11.074219 C 18.589844 -11.074219 19.207031 -11.003906 19.820312 -10.9375 C 17.496094 -10.117188 15.171875 -9.5 13.601562 -9.5 Z M 4.714844 2.871094 C 3.144531 2.871094 1.914062 2.664062 1.023438 2.324219 C 2.253906 0.476562 3.691406 -1.433594 5.195312 -3.347656 C 8.476562 -4.441406 12.714844 -5.261719 16.746094 -5.261719 C 18.726562 -5.261719 20.640625 -5.058594 22.417969 -4.714844 C 22.554688 -4.714844 22.554688 -4.648438 22.488281 -4.578125 C 19.820312 0 11.550781 2.871094 4.714844 2.871094 Z M 0.410156 1.914062 C -1.707031 0.476562 0.203125 -1.367188 3.828125 -2.800781 C 2.527344 -1.230469 1.367188 0.339844 0.410156 1.914062 Z M 0.410156 1.914062 "/></g></g></g><g fill="#000000" fill-opacity="1"><g transform="translate(80.28821, 195.46726)"><g><path d="M 2.253906 0.203125 C 4.375 0.203125 11.003906 -1.707031 15.789062 -5.261719 C 15.925781 -5.332031 15.992188 -5.46875 15.992188 -5.605469 C 15.992188 -5.808594 15.789062 -5.945312 15.582031 -5.945312 C 15.515625 -5.945312 15.445312 -5.945312 15.378906 -5.878906 C 10.664062 -2.460938 4.238281 -0.613281 2.253906 -0.613281 C 0.683594 -0.613281 -0.136719 -1.023438 -0.136719 -1.914062 C -0.136719 -2.800781 0.546875 -3.894531 1.433594 -4.851562 C 1.84375 -4.648438 2.390625 -4.578125 3.144531 -4.578125 C 4.375 -4.578125 5.945312 -5.605469 5.945312 -6.492188 C 5.945312 -7.175781 5.46875 -7.585938 4.714844 -7.585938 C 2.460938 -7.585938 -0.957031 -4.167969 -0.957031 -1.914062 C -0.957031 -0.546875 0.273438 0.203125 2.253906 0.203125 Z M 3.144531 -5.332031 C 2.664062 -5.332031 2.324219 -5.398438 2.050781 -5.46875 C 2.9375 -6.21875 3.894531 -6.765625 4.714844 -6.765625 C 5.058594 -6.765625 5.195312 -6.699219 5.195312 -6.492188 C 5.195312 -6.082031 3.894531 -5.332031 3.144531 -5.332031 Z M 3.144531 -5.332031 "/></g></g></g><g fill="#000000" fill-opacity="1"><g transform="translate(94.299781, 195.46726)"><g><path d="M 0.410156 3.007812 C 3.074219 3.007812 10.800781 -1.230469 16.609375 -5.261719 C 16.675781 -5.332031 16.746094 -5.398438 16.746094 -5.535156 C 16.746094 -5.742188 16.609375 -5.945312 16.402344 -5.945312 C 16.265625 -5.945312 16.199219 -5.945312 16.128906 -5.878906 C 9.636719 -1.367188 2.597656 2.253906 0.410156 2.253906 C -0.75 2.253906 -1.09375 1.980469 -1.09375 1.023438 C -1.09375 -0.339844 -0.203125 -2.460938 1.367188 -4.921875 C 12.988281 -11.960938 33.285156 -29.730469 33.285156 -33.695312 C 33.285156 -34.585938 32.738281 -35.0625 31.78125 -35.0625 C 26.042969 -35.0625 -1.84375 -7.039062 -1.84375 1.023438 C -1.84375 2.390625 -1.160156 3.007812 0.410156 3.007812 Z M 2.390625 -6.425781 C 9.910156 -17.496094 27.542969 -34.3125 31.78125 -34.3125 C 32.328125 -34.3125 32.535156 -34.105469 32.535156 -33.695312 C 32.535156 -30.414062 14.488281 -14.214844 2.390625 -6.425781 Z M 2.390625 -6.425781 "/></g></g></g><g fill="#000000" fill-opacity="1"><g transform="translate(109.199891, 195.46726)"><g><path d="M 0.410156 3.007812 C 3.074219 3.007812 10.800781 -1.230469 16.609375 -5.261719 C 16.675781 -5.332031 16.746094 -5.398438 16.746094 -5.535156 C 16.746094 -5.742188 16.609375 -5.945312 16.402344 -5.945312 C 16.265625 -5.945312 16.199219 -5.945312 16.128906 -5.878906 C 9.636719 -1.367188 2.597656 2.253906 0.410156 2.253906 C -0.75 2.253906 -1.09375 1.980469 -1.09375 1.023438 C -1.09375 -0.339844 -0.203125 -2.460938 1.367188 -4.921875 C 12.988281 -11.960938 33.285156 -29.730469 33.285156 -33.695312 C 33.285156 -34.585938 32.738281 -35.0625 31.78125 -35.0625 C 26.042969 -35.0625 -1.84375 -7.039062 -1.84375 1.023438 C -1.84375 2.390625 -1.160156 3.007812 0.410156 3.007812 Z M 2.390625 -6.425781 C 9.910156 -17.496094 27.542969 -34.3125 31.78125 -34.3125 C 32.328125 -34.3125 32.535156 -34.105469 32.535156 -33.695312 C 32.535156 -30.414062 14.488281 -14.214844 2.390625 -6.425781 Z M 2.390625 -6.425781 "/></g></g></g><g fill="#000000" fill-opacity="1"><g transform="translate(124.1, 195.46726)"><g><path d="M 2.253906 0.203125 C 4.375 0.203125 11.003906 -1.707031 15.789062 -5.261719 C 15.925781 -5.332031 15.992188 -5.46875 15.992188 -5.605469 C 15.992188 -5.808594 15.789062 -5.945312 15.582031 -5.945312 C 15.515625 -5.945312 15.445312 -5.945312 15.378906 -5.878906 C 10.664062 -2.460938 4.238281 -0.613281 2.253906 -0.613281 C 0.683594 -0.613281 -0.136719 -1.023438 -0.136719 -1.914062 C -0.136719 -2.800781 0.546875 -3.894531 1.433594 -4.851562 C 1.84375 -4.648438 2.390625 -4.578125 3.144531 -4.578125 C 4.375 -4.578125 5.945312 -5.605469 5.945312 -6.492188 C 5.945312 -7.175781 5.46875 -7.585938 4.714844 -7.585938 C 2.460938 -7.585938 -0.957031 -4.167969 -0.957031 -1.914062 C -0.957031 -0.546875 0.273438 0.203125 2.253906 0.203125 Z M 3.144531 -5.332031 C 2.664062 -5.332031 2.324219 -5.398438 2.050781 -5.46875 C 2.9375 -6.21875 3.894531 -6.765625 4.714844 -6.765625 C 5.058594 -6.765625 5.195312 -6.699219 5.195312 -6.492188 C 5.195312 -6.082031 3.894531 -5.332031 3.144531 -5.332031 Z M 3.144531 -5.332031 "/></g></g></g><g fill="#000000" fill-opacity="1"><g transform="translate(138.111571, 195.46726)"><g/></g></g><g fill="#000000" fill-opacity="1"><g transform="translate(153.216734, 195.46726)"><g><path d="M 2.390625 5.742188 C 2.664062 5.535156 2.800781 4.988281 2.9375 4.441406 C 3.007812 4.167969 2.9375 4.03125 2.871094 4.03125 C 4.304688 0.886719 9.570312 -5.261719 14.558594 -11.003906 C 17.769531 -14.761719 20.777344 -18.316406 22.554688 -20.777344 C 25.699219 -21.050781 28.296875 -21.1875 30.210938 -21.1875 C 35.472656 -21.1875 36.703125 -20.777344 36.703125 -19.34375 C 36.703125 -19.136719 36.910156 -18.933594 37.113281 -18.933594 C 37.320312 -18.933594 37.523438 -19.136719 37.523438 -19.34375 C 37.523438 -21.394531 35.882812 -21.941406 30.210938 -21.941406 C 28.5 -21.941406 26.246094 -21.871094 23.238281 -21.597656 L 23.445312 -22.078125 C 23.511719 -22.078125 23.511719 -22.144531 23.511719 -22.28125 C 23.511719 -22.488281 23.308594 -22.625 23.101562 -22.625 C 22.964844 -22.625 22.828125 -22.554688 22.761719 -22.488281 C 22.625 -22.144531 22.417969 -21.871094 22.144531 -21.53125 C 16.675781 -21.050781 9.707031 -20.09375 2.527344 -18.796875 C 2.324219 -18.796875 2.1875 -18.660156 2.1875 -18.453125 C 2.1875 -18.25 2.324219 -18.042969 2.597656 -18.042969 L 2.664062 -18.042969 C 9.570312 -19.273438 16.199219 -20.164062 21.53125 -20.640625 C 19.753906 -18.25 16.949219 -14.96875 13.941406 -11.550781 C 8.40625 -5.125 2.390625 1.84375 1.777344 4.714844 C 1.707031 4.988281 1.640625 5.261719 1.707031 5.398438 C 1.707031 5.742188 2.117188 5.945312 2.390625 5.742188 Z M 2.390625 5.742188 "/></g></g></g><g fill="#000000" fill-opacity="1"><g transform="translate(171.465952, 195.46726)"><g><path d="M -0.410156 0.546875 C 1.777344 0.546875 3.894531 -3.144531 3.484375 -5.808594 C 3.484375 -5.945312 3.554688 -6.082031 3.691406 -5.945312 C 7.65625 -3.484375 12.917969 -3.210938 16.472656 -5.261719 C 16.609375 -5.332031 16.746094 -5.46875 16.746094 -5.605469 C 16.746094 -5.808594 16.539062 -5.945312 16.335938 -5.945312 L 16.128906 -5.945312 C 12.851562 -4.03125 8.066406 -4.304688 4.375 -6.492188 C 4.238281 -6.5625 4.238281 -6.628906 4.375 -6.699219 C 4.441406 -6.765625 4.578125 -6.765625 4.648438 -6.835938 C 4.851562 -6.835938 4.921875 -6.972656 4.921875 -7.175781 C 4.921875 -7.382812 4.785156 -7.585938 4.578125 -7.585938 C 4.511719 -7.585938 4.441406 -7.585938 4.441406 -7.519531 C 4.101562 -7.449219 3.757812 -7.3125 3.484375 -7.175781 C 3.347656 -7.109375 3.347656 -7.109375 3.210938 -7.175781 C 2.9375 -7.246094 2.664062 -7.039062 2.527344 -6.765625 C 2.527344 -6.699219 2.460938 -6.699219 2.460938 -6.628906 C 0.0664062 -5.195312 -1.707031 -2.9375 -1.707031 -1.023438 C -1.707031 -0.0664062 -1.230469 0.546875 -0.410156 0.546875 Z M -0.410156 -0.203125 C -0.75 -0.203125 -0.957031 -0.476562 -0.957031 -1.023438 C -0.957031 -2.597656 0.613281 -4.578125 2.734375 -5.878906 C 3.074219 -3.691406 1.230469 -0.203125 -0.410156 -0.203125 Z M -0.410156 -0.203125 "/></g></g></g><g fill="#000000" fill-opacity="1"><g transform="translate(186.229362, 195.46726)"><g><path d="M -1.914062 0 C -1.640625 0 -1.023438 -0.546875 -0.203125 -1.09375 C 2.460938 -3.007812 7.859375 -6.972656 10.046875 -6.972656 C 10.320312 -6.972656 10.390625 -6.765625 10.390625 -6.628906 C 10.390625 -6.289062 10.117188 -5.195312 9.84375 -4.238281 C 9.636719 -3.347656 9.433594 -2.460938 9.433594 -2.050781 C 9.433594 -1.230469 10.046875 -0.75 11.003906 -0.75 C 13.464844 -0.75 17.769531 -2.527344 21.941406 -5.261719 C 22.078125 -5.332031 22.144531 -5.46875 22.144531 -5.605469 C 22.144531 -5.808594 21.941406 -5.945312 21.734375 -5.945312 L 21.53125 -5.945312 C 17.429688 -3.210938 13.261719 -1.503906 11.003906 -1.503906 C 10.457031 -1.503906 10.253906 -1.707031 10.253906 -2.050781 C 10.253906 -2.390625 10.390625 -3.144531 10.664062 -4.03125 C 10.867188 -5.058594 11.140625 -6.152344 11.140625 -6.765625 C 11.140625 -7.382812 10.730469 -7.722656 10.046875 -7.722656 C 8.269531 -7.722656 5.058594 -5.878906 -0.339844 -1.980469 C -0.683594 -1.777344 -0.75 -2.050781 -0.613281 -2.253906 C 0.886719 -4.375 3.828125 -7.792969 6.5625 -9.84375 C 6.628906 -9.910156 6.699219 -10.046875 6.699219 -10.183594 C 6.699219 -10.390625 6.5625 -10.527344 6.355469 -10.527344 C 6.21875 -10.527344 6.152344 -10.527344 6.082031 -10.457031 C 2.117188 -7.449219 -2.253906 -1.640625 -2.460938 -0.75 C -2.527344 -0.339844 -2.324219 0 -1.914062 0 Z M -1.914062 0 "/></g></g></g><g fill="#000000" fill-opacity="1"><g transform="translate(206.392354, 195.46726)"><g><path d="M 2.253906 0.203125 C 4.375 0.203125 11.003906 -1.707031 15.789062 -5.261719 C 15.925781 -5.332031 15.992188 -5.46875 15.992188 -5.605469 C 15.992188 -5.808594 15.789062 -5.945312 15.582031 -5.945312 C 15.515625 -5.945312 15.445312 -5.945312 15.378906 -5.878906 C 10.664062 -2.460938 4.238281 -0.613281 2.253906 -0.613281 C 0.683594 -0.613281 -0.136719 -1.023438 -0.136719 -1.914062 C -0.136719 -2.800781 0.546875 -3.894531 1.433594 -4.851562 C 1.84375 -4.648438 2.390625 -4.578125 3.144531 -4.578125 C 4.375 -4.578125 5.945312 -5.605469 5.945312 -6.492188 C 5.945312 -7.175781 5.46875 -7.585938 4.714844 -7.585938 C 2.460938 -7.585938 -0.957031 -4.167969 -0.957031 -1.914062 C -0.957031 -0.546875 0.273438 0.203125 2.253906 0.203125 Z M 3.144531 -5.332031 C 2.664062 -5.332031 2.324219 -5.398438 2.050781 -5.46875 C 2.9375 -6.21875 3.894531 -6.765625 4.714844 -6.765625 C 5.058594 -6.765625 5.195312 -6.699219 5.195312 -6.492188 C 5.195312 -6.082031 3.894531 -5.332031 3.144531 -5.332031 Z M 3.144531 -5.332031 "/></g></g></g><g fill="#000000" fill-opacity="1"><g transform="translate(220.403925, 195.46726)"><g/></g></g><g fill="#000000" fill-opacity="1"><g transform="translate(235.509088, 195.46726)"><g><path d="M 22.691406 1.640625 C 25.835938 1.640625 29.457031 -0.410156 34.039062 -4.988281 C 34.105469 -5.058594 34.175781 -5.125 34.175781 -5.195312 C 34.175781 -5.46875 33.96875 -5.605469 33.765625 -5.605469 C 33.628906 -5.605469 33.558594 -5.535156 33.492188 -5.46875 C 29.046875 -1.023438 25.632812 0.820312 22.691406 0.820312 C 19.410156 0.820312 15.992188 -0.476562 12.78125 -1.914062 C 16.675781 -4.03125 20.4375 -7.449219 23.71875 -10.867188 C 31.644531 -13.535156 36.976562 -18.863281 36.976562 -21.324219 C 36.976562 -22.144531 36.5 -22.625 35.679688 -22.625 C 33.558594 -22.625 30.484375 -19.273438 26.792969 -15.308594 C 25.699219 -14.078125 24.46875 -12.78125 23.238281 -11.484375 C 19.136719 -10.183594 14.351562 -9.570312 9.226562 -10.390625 L 9.160156 -10.390625 C 8.953125 -10.390625 8.816406 -10.253906 8.816406 -9.980469 C 8.816406 -9.84375 8.953125 -9.636719 9.089844 -9.636719 C 13.804688 -8.886719 18.25 -9.296875 22.144531 -10.390625 C 18.933594 -7.246094 15.515625 -4.167969 11.824219 -2.324219 C 6.289062 -4.851562 4.648438 -5.535156 2.800781 -5.535156 C 0.886719 -5.535156 -0.410156 -4.578125 -0.410156 -3.144531 C -0.410156 -1.09375 1.84375 0.203125 5.195312 0.203125 C 7.449219 0.203125 9.707031 -0.410156 11.824219 -1.503906 C 15.308594 0.0664062 19.070312 1.640625 22.691406 1.640625 Z M 24.8125 -12.03125 C 25.699219 -12.988281 26.589844 -13.875 27.339844 -14.761719 C 31.03125 -18.726562 33.902344 -21.804688 35.679688 -21.804688 C 36.089844 -21.804688 36.226562 -21.667969 36.226562 -21.324219 C 36.226562 -19.207031 31.714844 -14.695312 24.8125 -12.03125 Z M 5.195312 -0.613281 C 2.253906 -0.613281 0.410156 -1.570312 0.410156 -3.144531 C 0.410156 -4.101562 1.296875 -4.714844 2.800781 -4.714844 C 4.375 -4.714844 6.082031 -4.101562 10.9375 -1.914062 C 9.023438 -1.09375 7.109375 -0.613281 5.195312 -0.613281 Z M 5.195312 -0.613281 "/></g></g></g><g fill="#000000" fill-opacity="1"><g transform="translate(268.043264, 195.46726)"><g><path d="M 9.226562 0.0664062 C 11.621094 0.0664062 17.90625 -2.527344 21.734375 -5.261719 C 21.804688 -5.332031 21.871094 -5.46875 21.871094 -5.605469 C 21.871094 -5.808594 21.734375 -5.945312 21.53125 -5.945312 C 21.394531 -5.945312 21.324219 -5.945312 21.257812 -5.878906 C 17.429688 -3.007812 11.347656 -0.75 9.226562 -0.75 C 8.066406 -0.75 7.519531 -1.09375 7.519531 -1.980469 C 7.519531 -3.28125 8.613281 -4.921875 9.433594 -6.082031 C 9.910156 -6.765625 10.183594 -7.175781 10.183594 -7.449219 C 10.183594 -7.722656 9.980469 -7.929688 9.707031 -7.929688 C 9.363281 -7.929688 8.542969 -7.382812 7.109375 -6.289062 C 6.699219 -7.039062 6.21875 -7.3125 5.195312 -7.3125 C 2.871094 -7.3125 -3.28125 -3.484375 -3.28125 -1.160156 C -3.28125 -0.476562 -2.800781 -0.0664062 -2.050781 -0.0664062 C -0.136719 -0.0664062 4.101562 -3.210938 6.972656 -5.261719 C 7.519531 -5.671875 7.996094 -6.015625 8.339844 -6.21875 C 8.476562 -6.355469 8.679688 -6.289062 8.476562 -6.082031 C 7.65625 -4.851562 6.765625 -3.347656 6.765625 -1.980469 C 6.765625 -0.613281 7.585938 0.0664062 9.226562 0.0664062 Z M -2.050781 -0.886719 C -2.390625 -0.886719 -2.527344 -0.957031 -2.527344 -1.160156 C -2.527344 -2.800781 2.871094 -6.5625 5.195312 -6.5625 C 5.945312 -6.5625 6.152344 -6.425781 6.425781 -5.878906 C 3.621094 -3.757812 -0.410156 -0.886719 -2.050781 -0.886719 Z M -2.050781 -0.886719 "/></g></g></g><g fill="#000000" fill-opacity="1"><g transform="translate(288.001202, 195.46726)"><g><path d="M -1.84375 1.09375 C -1.570312 1.09375 -1.230469 0.683594 -0.75 0.273438 C 0.136719 -0.546875 1.640625 -1.914062 3.28125 -3.144531 C 6.082031 -5.195312 7.996094 -6.289062 8.953125 -6.289062 C 9.296875 -6.289062 9.5 -6.21875 9.5 -5.878906 C 9.5 -4.921875 8.679688 -3.621094 7.585938 -2.527344 L 7.246094 -2.527344 C 3.828125 -2.050781 2.1875 -1.777344 2.1875 -0.75 C 2.1875 0 2.800781 0.476562 3.621094 0.476562 C 4.988281 0.476562 6.628906 -0.546875 7.996094 -1.84375 C 11.621094 -2.324219 16.402344 -3.007812 20.027344 -5.261719 C 20.09375 -5.332031 20.164062 -5.46875 20.164062 -5.605469 C 20.164062 -5.808594 20.027344 -5.945312 19.820312 -5.945312 L 19.617188 -5.945312 C 16.402344 -3.964844 12.234375 -3.210938 8.816406 -2.734375 C 9.707031 -3.757812 10.253906 -4.921875 10.253906 -5.878906 C 10.253906 -6.628906 9.84375 -7.109375 9.089844 -7.109375 C 7.859375 -7.109375 5.808594 -5.945312 2.871094 -3.757812 C 1.09375 -2.527344 -0.410156 -1.160156 -0.683594 -0.886719 C -1.230469 -0.410156 -1.367188 -0.410156 -1.09375 -0.957031 C -0.476562 -2.050781 0.546875 -3.621094 1.84375 -5.398438 C 16.0625 -14.625 29.730469 -30.140625 29.730469 -33.558594 C 29.730469 -34.3125 29.320312 -34.722656 28.570312 -34.722656 C 25.699219 -34.722656 8.953125 -16.402344 1.367188 -6.015625 L 1.296875 -5.945312 C -0.957031 -2.871094 -2.390625 -0.410156 -2.390625 0.546875 C -2.390625 0.820312 -2.1875 1.09375 -1.84375 1.09375 Z M 3.28125 -7.3125 C 11.277344 -17.632812 26.179688 -33.902344 28.570312 -33.902344 C 28.910156 -33.902344 28.980469 -33.832031 28.980469 -33.558594 C 28.980469 -30.550781 16.675781 -16.539062 3.28125 -7.3125 Z M 3.621094 -0.339844 C 3.210938 -0.339844 3.007812 -0.476562 3.007812 -0.75 C 3.007812 -0.957031 3.894531 -1.230469 6.5625 -1.640625 C 5.605469 -0.820312 4.511719 -0.339844 3.621094 -0.339844 Z M 3.621094 -0.339844 "/></g></g></g><g fill="#000000" fill-opacity="1"><g transform="translate(306.25042, 195.46726)"><g><path d="M -0.273438 3.28125 C 1.980469 3.28125 4.921875 0.886719 6.289062 -1.09375 L 6.492188 -1.230469 C 8.269531 -1.777344 10.457031 -2.460938 12.78125 -3.144531 C 15.105469 -3.828125 17.566406 -4.511719 19.617188 -5.195312 C 19.820312 -5.261719 19.890625 -5.398438 19.890625 -5.605469 C 19.890625 -5.808594 19.753906 -5.945312 19.546875 -5.945312 L 19.410156 -5.945312 C 17.359375 -5.261719 14.898438 -4.578125 12.578125 -3.894531 C 10.664062 -3.347656 8.75 -2.734375 7.109375 -2.253906 C 7.039062 -2.1875 6.972656 -2.253906 6.972656 -2.390625 C 7.039062 -2.527344 7.039062 -2.664062 7.109375 -2.734375 C 7.109375 -3.417969 6.628906 -3.691406 5.808594 -3.691406 C 5.261719 -3.691406 4.578125 -3.554688 3.828125 -3.417969 C 3.074219 -3.28125 2.253906 -3.144531 1.640625 -3.144531 C 1.023438 -3.144531 0.820312 -3.28125 0.820312 -3.484375 C 0.820312 -5.058594 4.375 -7.792969 6.425781 -7.792969 C 6.765625 -7.792969 6.835938 -7.65625 6.835938 -7.449219 C 6.835938 -6.972656 6.21875 -6.21875 5.742188 -5.945312 C 5.605469 -5.878906 5.535156 -5.742188 5.535156 -5.605469 C 5.535156 -5.332031 5.742188 -5.195312 5.945312 -5.195312 C 6.015625 -5.195312 6.082031 -5.195312 6.152344 -5.261719 C 6.765625 -5.605469 7.382812 -6.425781 7.585938 -7.246094 C 7.65625 -7.3125 7.65625 -7.449219 7.65625 -7.519531 C 7.65625 -8.132812 7.175781 -8.542969 6.425781 -8.542969 C 3.964844 -8.542969 0 -5.46875 0 -3.484375 C 0 -2.734375 0.613281 -2.390625 1.640625 -2.390625 C 2.324219 -2.390625 3.144531 -2.527344 3.964844 -2.664062 C 4.511719 -2.734375 6.21875 -3.007812 6.289062 -2.800781 C 6.425781 -2.597656 6.152344 -2.253906 5.945312 -1.914062 C 5.945312 -1.84375 5.878906 -1.84375 5.808594 -1.84375 C 3.074219 -0.820312 -1.433594 1.09375 -1.433594 2.390625 C -1.433594 3.007812 -1.023438 3.28125 -0.273438 3.28125 Z M -0.273438 2.460938 C -0.613281 2.460938 -0.683594 2.460938 -0.683594 2.324219 C -0.683594 1.980469 1.707031 0.613281 4.578125 -0.546875 C 4.785156 -0.546875 4.851562 -0.476562 4.714844 -0.339844 C 3.347656 1.09375 1.296875 2.460938 -0.273438 2.460938 Z M -0.273438 2.460938 "/></g></g></g></svg>